<svg xmlns="http://www.w3.org/2000/svg" viewBox="0 0 1440 320"><path fill="#0099ff" fill-opacity="1" d="M0,64L9.6,101.3C19.2,139,38,213,58,224C76.8,235,96,181,115,165.3C134.4,149,154,171,173,192C192,213,211,235,230,218.7C249.6,203,269,149,288,154.7C307.2,160,326,224,346,256C364.8,288,384,288,403,266.7C422.4,245,442,203,461,197.3C480,192,499,224,518,197.3C537.6,171,557,85,576,90.7C595.2,96,614,192,634,213.3C652.8,235,672,181,691,149.3C710.4,117,730,107,749,90.7C768,75,787,53,806,42.7C825.6,32,845,32,864,42.7C883.2,53,902,75,922,101.3C940.8,128,960,160,979,160C998.4,160,1018,128,1037,117.3C1056,107,1075,117,1094,122.7C1113.6,128,1133,128,1152,160C1171.2,192,1190,256,1210,256C1228.8,256,1248,192,1267,149.3C1286.4,107,1306,85,1325,101.3C1344,117,1363,171,1382,208C1401.6,245,1421,267,1430,277.3L1440,288L1440,0L1430.4,0C1420.8,0,1402,0,1382,0C1363.2,0,1344,0,1325,0C1305.6,0,1286,0,1267,0C1248,0,1229,0,1210,0C1190.4,0,1171,0,1152,0C1132.8,0,1114,0,1094,0C1075.2,0,1056,0,1037,0C1017.6,0,998,0,979,0C960,0,941,0,922,0C902.4,0,883,0,864,0C844.8,0,826,0,806,0C787.2,0,768,0,749,0C729.6,0,710,0,691,0C672,0,653,0,634,0C614.4,0,595,0,576,0C556.8,0,538,0,518,0C499.2,0,480,0,461,0C441.6,0,422,0,403,0C384,0,365,0,346,0C326.4,0,307,0,288,0C268.8,0,250,0,230,0C211.2,0,192,0,173,0C153.6,0,134,0,115,0C96,0,77,0,58,0C38.4,0,19,0,10,0L0,0Z"></path></svg>